<?xml version="1.0" encoding="UTF-8" standalone="no"?>
<?xml-stylesheet type="text/css" href="../svg.css" ?>
<svg
   xmlns:dc="http://purl.org/dc/elements/1.1/"
   xmlns:cc="http://creativecommons.org/ns#"
   xmlns:rdf="http://www.w3.org/1999/02/22-rdf-syntax-ns#"
   xmlns:svg="http://www.w3.org/2000/svg"
   xmlns="http://www.w3.org/2000/svg"
   xmlns:sodipodi="http://sodipodi.sourceforge.net/DTD/sodipodi-0.dtd"
   xmlns:inkscape="http://www.inkscape.org/namespaces/inkscape"
   width="1900"
   height="1100"
   x="0px"
   y="0px"
   viewBox="0 0 1900 1100"
   style="null"
   version="1.1"
   desc="Created with imagetracer.js version 1.2.3"
   id="svg2"
   inkscape:version="0.91 r13725"
   sodipodi:docname="sleeplogopixels-itj_3.svg" //>
   <a xlink:href="https://soundcloud.com/sleepsang">

  <metadata
     id="metadata174">
    <rdf:RDF>
      <cc:Work
         rdf:about="">
        <dc:format>image/svg+xml</dc:format>
        <dc:type
           rdf:resource="http://purl.org/dc/dcmitype/StillImage" />
      </cc:Work>
    </rdf:RDF>
  </metadata>
  <defs
     id="defs172" />
  <sodipodi:namedview
     pagecolor="#ffffff"
     bordercolor="#666666"
     borderopacity="1"
     objecttolerance="10"
     gridtolerance="10"
     guidetolerance="10"
     inkscape:pageopacity="0"
     inkscape:pageshadow="2"
     inkscape:window-width="1440"
     inkscape:window-height="852"
     id="namedview170"
     showgrid="false"
     inkscape:zoom="0.69644045"
     inkscape:cx="950"
     inkscape:cy="377.69525"
     inkscape:window-x="0"
     inkscape:window-y="0"
     inkscape:window-maximized="1"
     inkscape:current-layer="svg2"
     inkscape:object-paths="true"
     inkscape:snap-bbox="true"
     inkscape:snap-bbox-midpoints="true" />
  <path
     fill="rgb(64,168,241)"
     stroke="rgb(64,168,241)"
     stroke-width="1"
     opacity="1"
     d="M 1435 0 L 1500 0 L 1500 110 Q 1463.3 123.5 1480 65 L 1470 65 L 1470 110 L 1410 110 L 1410 50 L 1445 50 L 1445 40 Q 1392.5 55 1410 10 L 1435 0 Z "
     id="path4" />
  <path
     fill="rgb(64,168,241)"
     stroke="rgb(64,168,241)"
     stroke-width="1"
     opacity="1"
     d="M 1805 0 L 1895 0 L 1900 25 L 1880 55 L 1900 160 L 1875 150 Q 1860 200 1800 190 L 1810 135 L 1800 110 L 1820 105 L 1800 100 L 1800 45 L 1815 40 L 1815 30 L 1605 30 L 1600 10 L 1795 10 L 1805 0 Z "
     id="path6" />
  <path
     fill="rgb(64,168,241)"
     stroke="rgb(64,168,241)"
     stroke-width="1"
     opacity="1"
     d="M 0 10 Q 33.3 -1.2 20 40 Q -13.3 51.3 0 10 Z "
     id="path8" />
  <path
     fill="rgb(64,168,241)"
     stroke="rgb(64,168,241)"
     stroke-width="1"
     opacity="1"
     d="M 30 10 L 95 10 L 100 30 L 125 30 L 150 20 L 145 40 L 30 40 L 30 10 Z "
     id="path10" />
  <path
     fill="rgb(64,168,241)"
     stroke="rgb(64,168,241)"
     stroke-width="1"
     opacity="1"
     d="M 180 10 Q 213.3 -1.2 200 40 L 160 40 L 160 25 L 180 25 L 180 10 Z "
     id="path12" />
  <path
     fill="rgb(64,168,241)"
     stroke="rgb(64,168,241)"
     stroke-width="1"
     opacity="1"
     d="M 235 10 L 300 10 L 300 40 L 225 40 L 220 25 L 235 10 Z "
     id="path14" />
  <path
     fill="rgb(64,168,241)"
     stroke="rgb(64,168,241)"
     stroke-width="1"
     opacity="1"
     d="M 430 10 L 500 20 L 495 40 L 430 40 L 430 10 Z "
     id="path16" />
  <path
     fill="rgb(64,168,241)"
     stroke="rgb(64,168,241)"
     stroke-width="1"
     opacity="1"
     d="M 825 10 Q 868.8 -5 860 25 L 870 25 Q 862.5 -5 900 10 L 895 40 L 800 40 Q 788.8 13.3 815 20 L 825 10 Z "
     id="path18" />
  <path
     fill="rgb(64,168,241)"
     stroke="rgb(64,168,241)"
     stroke-width="1"
     opacity="1"
     d="M 1240 10 Q 1286.9 0 1300 35 L 1225 40 L 1225 30 Q 1251.3 36.7 1240 10 Z "
     id="path20" />
  <path
     fill="rgb(64,168,241)"
     stroke="rgb(64,168,241)"
     stroke-width="1"
     opacity="1"
     d="M 1350 20 Q 1402 3.3 1390 40 Q 1338 56.7 1350 20 Z "
     id="path22" />
  <path
     fill="rgb(64,168,241)"
     stroke="rgb(64,168,241)"
     stroke-width="1"
     opacity="1"
     d="M 925 30 L 960 35 L 925 40 L 925 30 Z "
     id="path24" />
  <path
     fill="rgb(64,168,241)"
     stroke="rgb(64,168,241)"
     stroke-width="1"
     opacity="1"
     d="M 1600 40 L 1705 40 L 1715 50 L 1725 40 L 1790 40 L 1775 70 L 1735 60 L 1730 90 Q 1687.5 80 1695 110 L 1630 110 Q 1620 80 1650 90 L 1650 60 Q 1612.5 45 1620 75 L 1605 100 L 1600 40 Z "
     id="path26" />
  <path
     fill="rgb(64,168,241)"
     stroke="rgb(64,168,241)"
     stroke-width="1"
     opacity="1"
     d="M 15 50 L 20 190 L 0 185 L 0 115 L 15 50 Z "
     id="path28" />
  <path
     fill="rgb(64,168,241)"
     stroke="rgb(64,168,241)"
     stroke-width="1"
     opacity="1"
     d="M 30 50 Q 105 25 80 100 L 60 105 L 85 160 L 100 50 L 150 50 L 150 110 L 100 110 L 100 210 L 150 210 L 150 290 L 100 285 L 120 280 L 115 260 L 100 265 Q 113.3 216.9 80 230 L 80 270 Q 46.7 258.8 60 300 L 0 300 L 0 215 L 15 210 L 60 200 L 55 180 L 30 190 L 30 50 Z "
     id="path30" />
  <path
     fill="rgb(64,168,241)"
     stroke="rgb(64,168,241)"
     stroke-width="1"
     opacity="1"
     d="M 160 50 L 200 50 L 200 110 L 160 110 L 160 50 Z "
     id="path32" />
  <path
     fill="rgb(64,168,241)"
     stroke="rgb(64,168,241)"
     stroke-width="1"
     opacity="1"
     d="M 225 50 L 300 50 L 300 110 L 225 110 L 220 95 L 240 65 L 225 50 Z "
     id="path34" />
  <path
     fill="rgb(64,168,241)"
     stroke="rgb(64,168,241)"
     stroke-width="1"
     opacity="1"
     d="M 420 50 L 500 50 L 500 155 L 480 190 Q 450 180 460 210 Q 520 187.5 500 255 L 490 280 L 400 280 L 400 230 Q 430 240 420 210 L 400 205 L 400 130 L 420 125 L 420 50 Z "
     id="path36" />
  <path
     fill="rgb(64,168,241)"
     stroke="rgb(64,168,241)"
     stroke-width="1"
     opacity="1"
     d="M 800 50 L 895 50 Q 888.5 77.5 920 70 L 920 50 L 970 50 L 975 100 Q 1017.5 82.5 990 65 L 995 50 L 1005 70 L 1010 50 L 1040 55 L 1030 80 L 1000 85 L 1010 110 L 965 100 L 900 110 L 900 195 L 885 200 L 865 200 L 850 205 Q 862.5 232.5 875 210 Q 908.3 198.8 900 225 L 855 270 L 825 270 L 800 265 L 800 230 Q 830 240 820 210 L 800 205 L 800 130 L 850 130 L 850 110 L 800 110 L 800 50 Z "
     id="path38" />
  <path
     fill="rgb(64,168,241)"
     stroke="rgb(64,168,241)"
     stroke-width="1"
     opacity="1"
     d="M 1075 50 L 1100 50 L 1100 110 L 1020 105 L 1075 50 Z "
     id="path40" />
  <path
     fill="rgb(64,168,241)"
     stroke="rgb(64,168,241)"
     stroke-width="1"
     opacity="1"
     d="M 1210 50 L 1395 50 L 1400 55 L 1400 110 L 1260 115 L 1290 120 Q 1308.8 148.3 1300 210 L 1270 215 L 1290 220 L 1290 260 L 1200 260 L 1200 220 L 1215 220 L 1215 210 L 1200 205 L 1200 85 L 1210 50 Z "
     id="path42" />
  <path
     fill="rgb(64,168,241)"
     stroke="rgb(64,168,241)"
     stroke-width="1"
     opacity="1"
     d="M 1625 130 L 1660 130 L 1660 190 Q 1712 173.3 1700 210 L 1655 200 L 1600 210 L 1600 145 L 1615 140 L 1625 130 Z "
     id="path44" />
  <path
     fill="rgb(64,168,241)"
     stroke="rgb(64,168,241)"
     stroke-width="1"
     opacity="1"
     d="M 160 210 Q 212 189.2 200 235 L 210 235 L 215 210 L 300 210 L 290 255 L 300 280 L 230 285 L 300 290 L 290 405 Q 312.5 417.5 300 465 L 290 500 Q 228.3 491.3 200 510 L 195 470 L 170 485 L 170 410 L 200 410 Q 188.8 443.3 230 430 Q 240 400 210 410 L 210 365 L 200 320 L 250 315 L 200 305 L 230 295 L 160 290 L 160 210 Z "
     id="path46" />
  <path
     fill="rgb(64,168,241)"
     stroke="rgb(64,168,241)"
     stroke-width="1"
     opacity="1"
     d="M 1350 210 L 1400 210 L 1400 245 L 1420 235 Q 1408 189.2 1460 210 L 1465 230 L 1470 210 L 1500 210 L 1500 290 Q 1473.3 278.8 1480 305 L 1455 310 Q 1421.7 321.3 1430 295 L 1390 285 L 1385 310 L 1300 310 L 1300 270 L 1395 270 L 1395 260 L 1325 260 L 1320 240 Q 1365 255 1350 210 Z "
     id="path48" />
  <path
     fill="rgb(64,168,241)"
     stroke="rgb(64,168,241)"
     stroke-width="1"
     opacity="1"
     d="M 1775 210 Q 1820.8 198 1800 250 L 1720 245 L 1730 220 L 1775 210 Z "
     id="path50" />
  <path
     fill="rgb(64,168,241)"
     stroke="rgb(64,168,241)"
     stroke-width="1"
     opacity="1"
     d="M 1850 210 L 1900 210 L 1900 240 L 1860 245 L 1900 250 L 1900 310 L 1820 310 L 1820 280 L 1840 280 Q 1828.8 253.3 1855 260 L 1850 245 L 1850 210 Z "
     id="path52" />
  <path
     fill="rgb(64,168,241)"
     stroke="rgb(64,168,241)"
     stroke-width="1"
     opacity="1"
     d="M 1055 220 Q 1122.5 200 1100 260 L 1050 265 L 1100 270 L 1100 310 L 1025 310 L 1005 300 L 995 310 L 900 310 L 900 380 Q 870 370 880 400 L 855 400 L 815 410 L 800 385 L 800 365 L 815 340 L 830 345 Q 807.5 357.5 835 370 L 850 345 L 845 330 L 860 335 L 875 310 Q 908.3 321.3 900 295 L 915 280 L 1050 275 L 910 270 L 935 230 L 970 230 Q 958.8 256.7 985 250 L 1055 220 Z "
     id="path54" />
  <path
     fill="rgb(64,168,241)"
     stroke="rgb(64,168,241)"
     stroke-width="1"
     opacity="1"
     d="M 1640 220 L 1685 230 L 1700 225 L 1700 250 L 1640 250 L 1640 220 Z "
     id="path56" />
  <path
     fill="rgb(64,168,241)"
     stroke="rgb(64,168,241)"
     stroke-width="1"
     opacity="1"
     d="M 895 250 L 885 270 L 895 250 Z "
     id="path58" />
  <path
     fill="rgb(64,168,241)"
     stroke="rgb(64,168,241)"
     stroke-width="1"
     opacity="1"
     d="M 1635 260 L 1795 260 L 1800 285 L 1790 310 L 1700 310 L 1700 380 L 1660 380 L 1660 395 L 1655 410 L 1700 410 L 1700 510 L 1600 500 Q 1585 446.2 1615 430 L 1650 415 L 1600 410 L 1600 365 L 1630 320 L 1680 315 L 1600 310 L 1615 270 L 1635 260 Z "
     id="path60" />
  <path
     fill="rgb(64,168,241)"
     stroke="rgb(64,168,241)"
     stroke-width="1"
     opacity="1"
     d="M 1200 270 L 1270 275 L 1250 280 L 1250 310 L 1200 310 L 1200 270 Z "
     id="path62" />
  <path
     fill="rgb(64,168,241)"
     stroke="rgb(64,168,241)"
     stroke-width="1"
     opacity="1"
     d="M 800 280 L 840 285 L 835 310 L 815 310 Q 785 317.5 800 280 Z "
     id="path64" />
  <path
     fill="rgb(64,168,241)"
     stroke="rgb(64,168,241)"
     stroke-width="1"
     opacity="1"
     d="M 865 280 L 860 295 L 855 310 L 850 295 L 865 280 Z "
     id="path66" />
  <path
     fill="rgb(64,168,241)"
     stroke="rgb(64,168,241)"
     stroke-width="1"
     opacity="1"
     d="M 400 290 L 480 295 L 465 310 L 400 310 L 400 290 Z "
     id="path68" />
  <path
     fill="rgb(64,168,241)"
     stroke="rgb(64,168,241)"
     stroke-width="1"
     opacity="1"
     d="M 105 300 L 160 305 L 105 310 L 105 300 Z "
     id="path70" />
  <path
     fill="rgb(64,168,241)"
     stroke="rgb(64,168,241)"
     stroke-width="1"
     opacity="1"
     d="M 410 330 L 480 340 L 490 400 L 400 410 L 410 330 Z "
     id="path72" />
  <path
     fill="rgb(64,168,241)"
     stroke="rgb(64,168,241)"
     stroke-width="1"
     opacity="1"
     d="M 1200 340 Q 1246.9 330 1260 365 Q 1241.2 419 1275 410 L 1340 400 Q 1325 437.5 1355 430 Q 1369.5 397.5 1420 410 L 1420 455 Q 1385 447.1 1400 510 L 1300 510 L 1300 435 L 1285 420 L 1265 470 Q 1242.5 462.5 1250 485 L 1200 510 L 1200 340 Z "
     id="path74" />
  <path
     fill="rgb(64,168,241)"
     stroke="rgb(64,168,241)"
     stroke-width="1"
     opacity="1"
     d="M 605 400 Q 673.1 391.3 700 410 L 690 445 Q 715 460 680 475 L 685 490 L 700 485 Q 707.5 507.5 685 500 L 665 500 L 645 490 Q 580 525 465 510 L 435 500 L 400 510 L 400 440 L 425 440 L 510 410 L 515 430 L 520 410 L 595 410 L 605 400 Z M 500 470 L 500 490 L 610 485 L 595 470 L 500 470 Z "
     id="path76" />
  <path
     fill="rgb(64,168,241)"
     stroke="rgb(64,168,241)"
     stroke-width="1"
     opacity="1"
     d="M 1010 400 L 1090 400 L 1090 425 L 1100 465 L 1075 510 Q 1012.5 527.5 995 500 L 985 510 L 900 510 Q 892.5 478.5 920 485 L 920 420 L 945 420 L 1000 410 L 1005 470 L 1010 400 Z "
     id="path78" />
  <path
     fill="rgb(64,168,241)"
     stroke="rgb(64,168,241)"
     stroke-width="1"
     opacity="1"
     d="M 40 410 L 100 410 L 100 455 L 110 455 L 110 410 L 160 410 L 160 495 L 145 500 L 100 510 Q 116.7 458 80 470 L 70 510 L 40 505 L 40 410 Z "
     id="path80" />
  <path
     fill="rgb(64,168,241)"
     stroke="rgb(64,168,241)"
     stroke-width="1"
     opacity="1"
     d="M 1430 410 Q 1475 392.5 1460 445 L 1470 445 Q 1456.7 396.9 1490 410 Q 1508.8 438.3 1500 500 L 1430 500 L 1430 475 L 1430 455 L 1430 410 Z "
     id="path82" />
  <path
     fill="rgb(64,168,241)"
     stroke="rgb(64,168,241)"
     stroke-width="1"
     opacity="1"
     d="M 820 420 L 900 420 L 900 455 L 880 510 L 800 510 L 800 450 Q 833.3 461.3 820 420 Z "
     id="path84" />
  <path
     fill="rgb(64,168,241)"
     stroke="rgb(64,168,241)"
     stroke-width="1"
     opacity="1"
     d="M 10 430 L 30 435 L 30 510 Q -22.5 528.3 0 455 L 10 430 Z "
     id="path86" />
  <path
     fill="rgb(64,168,241)"
     stroke="rgb(64,168,241)"
     stroke-width="1"
     opacity="1"
     d="M 200 600 L 300 610 L 300 710 L 170 710 L 170 625 L 200 620 L 200 600 Z "
     id="path88" />
  <path
     fill="rgb(64,168,241)"
     stroke="rgb(64,168,241)"
     stroke-width="1"
     opacity="1"
     d="M 0 610 L 30 610 L 30 680 L 0 680 L 0 610 Z "
     id="path90" />
  <path
     fill="rgb(64,168,241)"
     stroke="rgb(64,168,241)"
     stroke-width="1"
     opacity="1"
     d="M 40 610 L 100 610 L 100 770 L 40 770 L 40 610 Z "
     id="path92" />
  <path
     fill="rgb(64,168,241)"
     stroke="rgb(64,168,241)"
     stroke-width="1"
     opacity="1"
     d="M 430 610 L 485 620 L 500 615 L 490 655 L 505 690 L 515 660 L 530 665 L 520 645 L 530 620 L 510 615 L 525 610 L 545 610 L 575 620 L 615 610 L 635 610 Q 657.5 602.5 650 625 L 660 625 Q 653.3 598.7 680 610 L 700 710 L 620 710 L 620 675 L 605 630 L 590 655 L 610 705 L 585 710 Q 551.7 721.3 560 695 L 550 695 L 550 710 L 500 710 L 500 770 L 445 770 L 425 770 Q 402.5 777.5 410 755 L 435 720 L 465 730 L 475 710 L 445 700 L 415 710 L 400 675 Q 440 661.2 430 610 Z "
     id="path94" />
  <path
     fill="rgb(64,168,241)"
     stroke="rgb(64,168,241)"
     stroke-width="1"
     opacity="1"
     d="M 855 610 Q 898.8 595 890 625 L 875 650 L 865 630 L 850 645 L 890 685 L 885 710 L 800 710 L 800 650 Q 837.5 665 830 635 L 860 625 L 855 610 Z "
     id="path96" />
  <path
     fill="rgb(64,168,241)"
     stroke="rgb(64,168,241)"
     stroke-width="1"
     opacity="1"
     d="M 1020 610 L 1090 610 L 1090 655 Q 1117.5 672.5 1100 735 L 1090 755 L 1095 770 Q 1027.5 787.5 1010 755 Q 993.3 706.9 1035 720 L 1035 710 Q 1012.5 717.5 1020 695 L 1010 645 L 1020 610 Z "
     id="path98" />
  <path
     fill="rgb(64,168,241)"
     stroke="rgb(64,168,241)"
     stroke-width="1"
     opacity="1"
     d="M 1235 610 L 1385 610 L 1390 640 L 1370 645 L 1380 670 L 1400 670 L 1400 610 L 1440 610 L 1440 710 L 1350 710 L 1350 690 L 1310 690 L 1310 675 L 1300 675 L 1290 770 L 1200 770 L 1200 730 Q 1230 740 1220 710 L 1200 705 L 1200 620 L 1235 610 Z "
     id="path100" />
  <path
     fill="rgb(64,168,241)"
     stroke="rgb(64,168,241)"
     stroke-width="1"
     opacity="1"
     d="M 1455 610 L 1460 705 L 1450 705 L 1455 610 Z "
     id="path102" />
  <path
     fill="rgb(64,168,241)"
     stroke="rgb(64,168,241)"
     stroke-width="1"
     opacity="1"
     d="M 1475 610 L 1480 705 L 1470 705 L 1475 610 Z "
     id="path104" />
  <path
     fill="rgb(64,168,241)"
     stroke="rgb(64,168,241)"
     stroke-width="1"
     opacity="1"
     d="M 1495 610 L 1500 695 L 1490 695 L 1495 610 Z "
     id="path106" />
  <path
     fill="rgb(64,168,241)"
     stroke="rgb(64,168,241)"
     stroke-width="1"
     opacity="1"
     d="M 130 620 L 160 620 L 160 710 Q 126.7 721.3 140 680 L 110 680 L 110 640 Q 140 650 130 620 Z "
     id="path108" />
  <path
     fill="rgb(64,168,241)"
     stroke="rgb(64,168,241)"
     stroke-width="1"
     opacity="1"
     d="M 10 710 L 30 710 L 30 770 Q -11.3 786.7 0 745 L 10 710 Z "
     id="path110" />
  <path
     fill="rgb(64,168,241)"
     stroke="rgb(64,168,241)"
     stroke-width="1"
     opacity="1"
     d="M 925 720 L 965 770 L 855 770 L 850 740 L 915 740 L 925 720 Z "
     id="path112" />
  <path
     fill="rgb(64,168,241)"
     stroke="rgb(64,168,241)"
     stroke-width="1"
     opacity="1"
     d="M 965 720 L 975 740 L 965 720 Z "
     id="path114" />
  <path
     fill="rgb(64,168,241)"
     stroke="rgb(64,168,241)"
     stroke-width="1"
     opacity="1"
     d="M 635 730 Q 689 711.3 680 745 L 695 770 L 605 770 L 600 750 L 635 730 Z "
     id="path116" />
  <path
     fill="rgb(64,168,241)"
     stroke="rgb(64,168,241)"
     stroke-width="1"
     opacity="1"
     d="M 0 780 Q 45 765 30 810 Q -15 825 0 780 Z "
     id="path118" />
  <path
     fill="rgb(64,168,241)"
     stroke="rgb(64,168,241)"
     stroke-width="1"
     opacity="1"
     d="M 40 780 L 100 780 L 100 825 L 90 870 L 50 880 L 45 840 L 40 880 Q -12 900.8 0 855 L 10 830 L 35 840 L 40 780 Z "
     id="path120" />
  <path
     fill="rgb(64,168,241)"
     stroke="rgb(64,168,241)"
     stroke-width="1"
     opacity="1"
     d="M 425 780 Q 485.8 767.5 480 795 L 490 795 L 495 780 L 515 830 L 520 810 L 600 810 L 605 780 L 700 780 L 690 825 L 700 880 L 500 870 L 495 840 L 465 880 L 415 870 L 400 875 L 400 830 L 430 830 Q 417.5 800 455 810 L 455 800 L 410 795 L 425 780 Z "
     id="path122" />
  <path
     fill="rgb(64,168,241)"
     stroke="rgb(64,168,241)"
     stroke-width="1"
     opacity="1"
     d="M 820 780 L 985 780 L 1000 795 L 1005 810 L 1015 780 L 1100 780 L 1100 810 L 1075 800 L 1050 810 L 1060 835 L 1035 880 L 1000 880 L 1000 810 L 950 810 L 950 795 L 940 795 L 940 810 L 900 810 L 900 880 L 800 880 Q 793.7 816.2 820 780 Z "
     id="path124" />
  <path
     d="m 1422.5651,1014.9209 1.3848,-78.97299 -41.1529,0.25652 -1.0578,-54.02484 120.9307,-17.67924 -120.8602,3.85885 46.3967,-8.51253 78.973,-0.56222 L 1504.5632,1000 1450,1020 l 50,-10 -10,55 10,35 -25,-10 c 0,0 -33.3333,20 -70,10 l -12.8206,-11.487 c 0,0 -53.1825,18.9344 -72.4547,4.3076 -3.1206,-2.3683 0.6179,-9.0946 -2.4843,-11.4869 -2.1559,-1.6626 -8.1595,0.3589 -8.1595,0.3589 l -11.0311,14.7177 -22.0623,2.1538 -37.9938,0 -37.9937,0 11.487,-27.8531 L 1200,987.73047 c 0,0 37.5644,6.36415 48.974,-5.32759 5.5676,-5.70524 -90.4376,-1.18751 -1.487,-23.86872 15.3383,-3.91105 -47.487,0.13128 -47.487,0.13128 l 0,-47.94284 22.9739,-26.08793 -22.9739,14.11651 12.9228,-4.54983 -12.9228,-7.42159 0,-58.43865 81.8448,19.81643 L 1200,845 1276.0502,830 1220,815 l -20,-5 0,-30 89.2194,-9.02412 C 1300,1040 1261.9146,1075.5901 1422.5651,1014.9209 Z M 1285,1000 c 15.22,-0.83101 -32.8921,26.6671 -63.973,40 179.6899,-67.63971 126.973,4.6667 118.973,-20 l 45,10 c 20,-5.3333 25,4.6667 15,30 l -194.7676,6.4359 L 1415,1070 l 5,-25 c 6.6667,-33.3333 0,-46.66667 -20,-40"
     id="path126"
     inkscape:connector-curvature="0"
     style="opacity:1;fill:#40a8f1;stroke:#40a8f1;stroke-width:1"
     sodipodi:nodetypes="cccccccccccccccccccccccccssccccccccccccccccccccccsc" />
  <path
     fill="rgb(64,168,241)"
     stroke="rgb(64,168,241)"
     stroke-width="1"
     opacity="1"
     d="M 140 810 L 160 815 L 160 880 L 120 875 L 140 870 L 140 810 Z "
     id="path128" />
  <path
     fill="rgb(64,168,241)"
     stroke="rgb(64,168,241)"
     stroke-width="1"
     opacity="1"
     d="M 170 810 L 200 810 Q 187.5 840 225 830 Q 239.5 797.5 290 810 L 300 855 L 295 880 L 275 880 L 245 870 L 235 880 L 170 880 L 170 810 Z "
     id="path130" />
  <path
     fill="rgb(64,168,241)"
     stroke="rgb(64,168,241)"
     stroke-width="1"
     opacity="1"
     d="M 0 890 Q 30 880 20 910 Q -10 920 0 890 Z "
     id="path132" />
  <path
     fill="rgb(64,168,241)"
     stroke="rgb(64,168,241)"
     stroke-width="1"
     opacity="1"
     d="M 100 890 L 160 890 L 160 910 L 100 910 L 100 890 Z "
     id="path134" />
  <path
     fill="rgb(64,168,241)"
     stroke="rgb(64,168,241)"
     stroke-width="1"
     opacity="1"
     d="M 170 890 L 225 900 L 255 890 L 275 890 Q 308.3 878.8 300 905 L 300 925 Q 317.5 987.5 290 1005 L 300 1025 L 300 1045 Q 311.3 1078.3 285 1070 L 265 1070 L 185 1070 L 180 1055 L 180 1035 L 185 1020 L 190 1040 Q 242.8 1047.1 270 1015 L 220 1005 L 240 1000 L 240 980 Q 213.3 991.3 220 965 L 210 935 L 220 915 L 170 910 L 170 890 Z M 240 900 L 240 915 L 260 905 L 240 900 Z "
     id="path136" />
  <path
     fill="rgb(64,168,241)"
     stroke="rgb(64,168,241)"
     stroke-width="1"
     opacity="1"
     d="M 415 890 L 465 900 L 480 895 Q 473.3 921.3 500 910 L 505 890 L 695 890 L 695 900 L 635 910 L 595 900 L 585 910 L 500 910 L 500 960 L 475 960 L 475 970 Q 505 961.2 490 1005 L 500 1055 L 485 1070 L 400 1070 L 410 1015 L 400 995 L 410 975 L 410 955 L 420 910 L 400 905 L 415 890 Z "
     id="path138" />
  <path
     fill="rgb(64,168,241)"
     stroke="rgb(64,168,241)"
     stroke-width="1"
     opacity="1"
     d="M 800 890 Q 852.9 877.5 845 910 L 900 910 L 900 965 L 890 1005 L 900 1060 Q 846.3 1075 830 1045 Q 836.7 1018.8 810 1030 L 805 1050 L 800 975 L 830 910 Q 788.8 923.3 800 890 Z "
     id="path140" />
  <path
     fill="rgb(64,168,241)"
     stroke="rgb(64,168,241)"
     stroke-width="1"
     opacity="1"
     d="M 1010 890 Q 1044.2 882.5 1055 910 L 1060 890 Q 1086.7 878.8 1080 905 L 1090 905 L 1095 890 L 1100 935 L 1100 955 L 1090 985 L 1090 1005 L 1075 1030 Q 1057.5 992.5 1040 1025 L 1030 1060 Q 1000 1072.5 1010 1035 L 1020 995 L 1010 995 L 1005 1010 L 1000 995 L 1010 975 Q 987.5 962.5 1000 915 L 1010 890 Z M 1025 950 L 1020 985 L 1030 985 L 1025 950 Z M 1055 950 L 1055 980 L 1080 965 L 1055 950 Z M 1065 1000 L 1080 1015 Q 1088 993 1065 1000 Z "
     id="path142" />
  <path
     fill="rgb(64,168,241)"
     stroke="rgb(64,168,241)"
     stroke-width="1"
     opacity="1"
     d="M 635 920 L 700 920 L 700 980 Q 666.7 968.8 680 1010 L 700 1010 L 700 1070 Q 670 1060 680 1090 L 700 1095 L 605 1100 L 605 1090 Q 653.1 1103.3 640 1070 Q 588 1090.8 600 1045 L 600 1025 L 610 930 L 635 920 Z "
     id="path144" />
  <path
     fill="rgb(64,168,241)"
     stroke="rgb(64,168,241)"
     stroke-width="1"
     opacity="1"
     d="M 95 1000 L 100 1070 L 80 1070 L 75 1100 L 0 1100 L 0 1040 Q 33.3 1051.3 20 1010 L 40 1010 L 45 1030 L 50 1010 L 95 1000 Z "
     id="path146" />
  <path
     fill="rgb(64,168,241)"
     stroke="rgb(64,168,241)"
     stroke-width="1"
     opacity="1"
     d="M 155 1020 Q 185 1011.2 170 1055 Q 160 1080 115 1070 L 155 1020 Z "
     id="path148" />
  <path
     fill="rgb(64,168,241)"
     stroke="rgb(64,168,241)"
     stroke-width="1"
     opacity="1"
     d="M 1080 1040 L 1100 1045 L 1080 1055 L 1080 1040 Z "
     id="path150" />
  <path
     fill="rgb(64,168,241)"
     stroke="rgb(64,168,241)"
     stroke-width="1"
     opacity="1"
     d="M 845 1070 L 900 1075 L 845 1080 L 845 1070 Z "
     id="path152" />
  <path
     fill="rgb(64,168,241)"
     stroke="rgb(64,168,241)"
     stroke-width="1"
     opacity="1"
     d="M 1015 1070 L 1020 1085 L 1000 1095 L 1015 1070 Z "
     id="path154" />
  <path
     fill="rgb(64,168,241)"
     stroke="rgb(64,168,241)"
     stroke-width="1"
     opacity="1"
     d="M 100 1080 L 165 1080 L 170 1100 L 105 1100 L 100 1080 Z "
     id="path156" />
  <path
     fill="rgb(64,168,241)"
     stroke="rgb(64,168,241)"
     stroke-width="1"
     opacity="1"
     d="M 185 1080 L 275 1080 L 280 1100 L 205 1100 L 185 1080 Z "
     id="path158" />
  <path
     fill="rgb(64,168,241)"
     stroke="rgb(64,168,241)"
     stroke-width="1"
     opacity="1"
     d="M 400 1080 L 485 1080 L 490 1100 L 405 1100 L 400 1080 Z "
     id="path160" />
  <path
     fill="rgb(64,168,241)"
     stroke="rgb(64,168,241)"
     stroke-width="1"
     opacity="1"
     d="M 1075 1080 L 1065 1100 L 1075 1080 Z "
     id="path162" />
  <path
     fill="rgb(0,0,0)"
     stroke="rgb(0,0,0)"
     stroke-width="1"
     opacity="0"
     d="M 5 0 L 1430 5 L 1410 10 Q 1392.5 55 1445 40 L 1460 35 Q 1448.1 60 1410 50 L 1410 110 L 1470 110 L 1475 60 L 1480 110 L 1500 105 L 1500 0 L 1795 0 L 1795 10 L 1605 10 L 1600 30 L 1820 35 L 1800 40 L 1800 95 L 1815 100 L 1815 110 Q 1792.5 102.5 1800 125 L 1810 145 L 1800 190 Q 1860 200 1875 150 L 1900 160 L 1900 210 L 1850 210 L 1850 245 L 1865 240 L 1900 245 L 1840 260 Q 1850 290 1820 280 L 1820 310 L 1895 310 L 1900 315 L 1900 1100 L 1505 1100 L 1500 1075 L 1500 1055 Q 1518.8 1001 1485 1010 L 1450 1020 L 1450 1000 L 1500 1000 L 1500 890 L 1480 890 L 1480 940 L 1450 940 L 1450 890 L 1300 890 L 1305 910 L 1400 910 L 1400 1005 Q 1430 995 1420 1045 L 1415 1070 L 1300 1065 L 1400 1060 Q 1415 1022.5 1385 1030 L 1340 1020 Q 1352 1056.7 1300 1040 L 1300 1000 L 1285 1000 L 1300 975 L 1300 910 L 1255 910 L 1255 900 L 1290 895 L 1270 885 L 1500 880 L 1500 800 L 1445 800 L 1435 810 L 1300 810 L 1295 780 L 1200 780 Q 1185 817.5 1215 810 L 1210 825 L 1200 845 L 1200 1100 L 1075 1100 L 1065 1090 L 1015 1100 L 1020 1085 L 1015 1070 L 1000 1100 L 705 1100 L 680 1090 Q 672.5 1058.5 700 1065 L 700 1010 Q 666.7 1021.3 680 980 L 700 980 L 700 920 Q 638.3 911.2 610 930 L 600 1025 L 610 1025 L 615 1010 L 620 1025 Q 592.5 1035.8 600 1070 Q 652 1053.3 640 1090 Q 582.4 1109.2 490 1100 L 485 1080 L 400 1080 L 395 1100 L 280 1100 L 275 1080 L 185 1080 L 185 1090 L 200 1095 L 170 1100 L 165 1080 L 100 1080 Q 110 1110 80 1100 Q 70 1057.5 100 1065 L 100 1005 L 85 1010 Q 41.2 995 50 1025 L 40 1025 Q 46.7 998.8 20 1010 Q 33.3 1051.3 0 1040 L 0 915 Q 27.5 921.5 20 890 L 0 885 L 40 880 Q 50 841.9 25 830 Q 2.5 822.5 10 845 L 0 845 L 0 810 Q 45 825 30 780 L 0 775 L 30 770 L 30 710 L 10 710 L 5 740 L 0 680 L 30 680 L 30 610 L 0 605 L 0 510 L 30 510 L 30 430 Q 3.3 418.8 10 445 L 0 445 L 0 300 L 60 300 Q 46.7 258.8 80 270 L 80 230 L 100 230 L 105 270 L 120 265 Q 127.5 287.5 105 280 L 105 290 L 150 290 L 150 210 L 100 210 L 100 115 L 90 115 L 85 160 L 60 105 L 80 100 Q 105 25 30 50 L 30 185 L 45 190 L 60 185 Q 68.7 215 25 200 L 0 210 Q -7.5 178.5 20 185 L 20 55 L 10 55 L 5 110 L 0 40 Q 33.3 51.3 20 10 L 5 0 Z M 30 10 L 30 40 L 145 40 L 150 20 L 125 30 L 100 30 L 95 10 L 30 10 Z M 180 10 L 180 25 L 160 25 L 160 40 L 200 40 Q 213 -1 180 10 Z M 235 10 L 220 25 L 225 40 L 300 40 L 300 10 L 235 10 Z M 430 10 L 430 40 L 495 40 L 500 20 L 430 10 Z M 825 10 L 815 20 Q 789 13 800 40 L 895 40 L 900 10 Q 862 -5 870 25 L 860 25 Q 869 -5 825 10 Z M 1240 10 Q 1251 37 1225 30 L 1225 40 L 1300 35 Q 1287 0 1240 10 Z M 1350 20 Q 1338 57 1390 40 Q 1402 3 1350 20 Z M 925 30 L 925 40 L 960 35 L 925 30 Z M 1600 40 L 1605 100 L 1620 75 Q 1612 45 1650 60 L 1650 90 Q 1620 80 1630 110 L 1695 110 Q 1688 80 1730 90 L 1735 60 L 1775 70 L 1790 40 L 1725 40 L 1715 50 L 1705 40 L 1600 40 Z M 100 50 L 100 110 L 150 110 L 150 50 L 100 50 Z M 160 50 L 160 110 L 200 110 L 200 50 L 160 50 Z M 225 50 L 240 65 L 220 95 L 225 110 L 300 110 L 300 50 L 225 50 Z M 420 50 L 420 125 L 400 130 L 400 205 L 420 210 Q 430 240 400 230 L 400 280 L 490 280 L 500 255 Q 520 188 460 210 Q 450 180 480 190 L 500 155 L 500 50 L 420 50 Z M 800 50 L 800 110 L 850 110 L 850 130 L 800 130 L 800 205 L 820 210 Q 830 240 800 230 L 805 270 L 860 215 L 850 205 L 865 200 L 885 200 L 900 195 L 900 110 L 955 110 Q 983 96 970 50 L 920 50 L 920 70 Q 889 78 895 50 L 800 50 Z M 1010 50 L 1000 75 L 1030 80 L 1040 55 L 1010 50 Z M 1075 50 L 1020 105 L 1100 110 L 1100 50 L 1075 50 Z M 1210 50 L 1200 85 L 1200 205 L 1215 210 L 1215 220 L 1200 220 L 1200 260 L 1290 260 L 1290 220 L 1270 215 L 1300 210 Q 1309 148 1290 120 L 1260 115 L 1400 110 L 1400 55 L 1395 50 L 1210 50 Z M 995 80 L 970 105 L 1010 110 L 995 80 Z M 1625 130 L 1615 140 L 1600 145 L 1600 210 L 1655 200 L 1700 210 Q 1712 173 1660 190 L 1660 130 L 1625 130 Z M 160 210 L 160 290 L 300 280 L 290 255 L 300 210 L 215 210 L 210 235 L 200 235 Q 212 189 160 210 Z M 875 210 L 825 270 L 855 270 L 900 225 Q 908 199 875 210 Z M 1350 210 Q 1365 255 1320 240 L 1325 260 L 1395 260 L 1395 270 L 1300 270 L 1300 310 L 1385 310 L 1390 285 L 1430 295 Q 1422 321 1455 310 L 1480 305 Q 1473 279 1500 290 L 1500 210 L 1470 210 L 1465 230 L 1460 210 Q 1408 189 1420 235 L 1400 245 L 1400 210 L 1350 210 Z M 1775 210 L 1730 220 L 1720 245 L 1800 250 Q 1821 198 1775 210 Z M 1055 220 L 985 250 Q 959 257 970 230 L 935 230 L 910 270 L 1045 270 L 1100 260 Q 1123 200 1055 220 Z M 1640 220 L 1640 250 L 1700 250 L 1700 225 L 1685 230 L 1640 220 Z M 1635 260 L 1615 270 L 1600 310 L 1680 315 L 1630 320 L 1600 365 L 1600 410 Q 1646 423 1660 395 L 1660 380 L 1700 380 L 1700 310 L 1790 310 L 1800 285 L 1795 260 L 1635 260 Z M 1055 270 L 1045 280 L 915 280 L 900 310 L 995 310 L 1005 300 L 1100 310 Q 1123 250 1055 270 Z M 1200 270 L 1200 310 L 1250 310 L 1250 280 L 1270 275 L 1200 270 Z M 800 280 L 800 310 L 840 285 L 800 280 Z M 235 290 L 200 305 L 250 315 L 200 320 L 210 365 L 210 410 Q 240 400 230 430 Q 189 443 200 410 L 170 410 L 170 485 L 195 470 L 200 510 Q 228 491 290 500 L 300 465 Q 312 417 290 405 L 300 375 L 300 290 L 235 290 Z M 400 290 L 400 310 L 465 310 L 480 295 L 400 290 Z M 105 300 L 105 310 L 160 305 L 105 300 Z M 875 310 L 820 395 L 815 410 L 855 400 L 880 400 Q 870 370 900 380 L 900 310 L 875 310 Z M 410 330 L 400 410 L 490 400 L 480 340 L 410 330 Z M 815 340 L 800 365 L 830 345 L 815 340 Z M 1200 340 L 1200 510 L 1250 485 Q 1243 463 1265 470 L 1285 420 L 1300 435 L 1300 510 L 1400 510 Q 1385 447 1420 455 L 1420 410 Q 1370 397 1355 430 Q 1325 437 1340 400 L 1275 410 Q 1241 419 1260 365 Q 1247 330 1200 340 Z M 605 400 L 615 410 L 615 420 L 595 410 L 525 410 L 520 425 L 500 435 L 510 410 L 425 440 L 400 440 L 400 510 L 435 500 L 465 510 L 635 500 L 700 435 L 700 410 Q 673 391 605 400 Z M 1010 400 L 1005 470 L 1000 410 L 945 420 L 920 420 L 920 485 Q 893 479 900 510 L 985 510 L 995 500 Q 1013 528 1075 510 L 1100 465 L 1090 425 L 1090 400 L 1010 400 Z M 40 410 L 40 505 L 70 510 L 80 470 Q 117 458 100 510 L 145 500 L 160 495 L 160 410 L 110 410 L 110 455 L 100 455 L 100 410 L 40 410 Z M 1430 410 L 1430 455 L 1430 475 L 1430 500 L 1500 500 Q 1509 438 1490 410 Q 1457 397 1470 445 L 1460 445 Q 1475 393 1430 410 Z M 1655 410 L 1615 430 Q 1585 446 1600 500 L 1700 510 L 1700 410 L 1655 410 Z M 820 420 Q 833 461 800 450 L 800 510 L 880 510 L 900 455 L 900 420 L 820 420 Z M 675 470 L 655 500 L 680 485 L 675 470 Z M 695 480 L 680 495 L 700 500 L 695 480 Z M 200 600 L 200 620 L 170 625 L 170 710 L 300 710 L 300 610 L 200 600 Z M 40 610 L 40 770 L 100 770 L 100 610 L 40 610 Z M 430 610 Q 440 661 400 675 L 405 700 L 480 615 L 430 610 Z M 495 610 L 440 675 L 415 710 L 435 710 L 500 645 L 495 610 Z M 545 610 L 530 635 L 560 615 L 545 610 Z M 585 610 L 565 620 L 450 755 L 445 770 L 500 770 L 500 710 L 550 710 L 620 615 L 585 610 Z M 635 610 L 610 635 L 615 670 L 650 625 Q 658 603 635 610 Z M 660 610 L 620 675 L 620 710 L 700 710 L 680 625 Q 687 599 660 610 Z M 855 610 L 875 650 L 890 625 Q 899 595 855 610 Z M 1020 610 L 1010 645 L 1020 695 Q 1013 718 1035 710 L 1035 720 Q 993 707 1010 755 Q 1028 788 1095 770 L 1090 755 L 1100 735 Q 1117 673 1090 655 L 1090 610 L 1020 610 Z M 1235 610 L 1200 620 L 1200 705 L 1220 710 Q 1230 740 1200 730 L 1200 770 L 1290 770 L 1300 675 L 1310 675 L 1310 690 L 1350 690 L 1350 710 L 1440 710 L 1440 610 L 1400 610 L 1400 670 L 1380 670 L 1370 645 L 1390 640 L 1385 610 L 1235 610 Z M 1455 610 L 1450 705 L 1460 705 L 1455 610 Z M 1475 610 L 1470 705 L 1480 705 L 1475 610 Z M 1495 610 L 1490 695 L 1500 695 L 1495 610 Z M 130 620 Q 140 650 110 640 L 110 680 L 140 680 Q 127 721 160 710 L 160 620 L 130 620 Z M 835 630 Q 838 663 800 650 L 800 710 L 890 710 L 890 685 L 835 630 Z M 495 660 L 455 710 Q 495 715 500 685 L 495 660 Z M 595 660 L 560 710 L 600 695 L 595 660 Z M 435 720 L 410 755 Q 403 778 425 770 L 460 725 L 435 720 Z M 925 720 L 915 740 L 850 740 L 855 770 L 965 770 L 925 720 Z M 635 730 L 600 750 L 605 770 L 695 770 L 680 745 Q 689 711 635 730 Z M 40 780 L 50 880 L 90 870 L 100 825 L 100 780 L 40 780 Z M 425 780 L 410 795 L 455 800 Q 468 823 480 795 Q 486 768 425 780 Z M 495 780 L 420 875 L 465 880 L 510 825 L 495 780 Z M 600 780 L 600 810 L 520 810 L 500 870 L 700 880 L 690 825 L 700 805 L 695 780 L 600 780 Z M 820 780 Q 794 816 800 880 L 900 880 L 900 810 L 940 810 L 945 790 L 950 810 L 1000 810 L 1000 795 L 985 780 L 820 780 Z M 1015 780 L 1030 805 L 1000 815 L 1000 880 L 1035 880 L 1060 835 L 1050 810 L 1075 800 L 1100 810 L 1100 780 L 1015 780 Z M 140 810 L 140 870 L 120 875 L 160 880 L 160 815 L 140 810 Z M 170 810 L 170 880 L 235 880 L 290 810 Q 240 797 225 830 Q 188 840 200 810 L 170 810 Z M 430 810 Q 441 843 400 830 L 405 880 L 460 815 L 430 810 Z M 295 830 L 255 880 Q 295 885 300 855 L 295 830 Z M 100 890 L 100 910 L 160 910 L 160 890 L 100 890 Z M 170 890 L 170 910 L 220 915 L 210 935 L 240 915 Q 233 893 255 900 L 255 890 L 225 900 L 170 890 Z M 275 890 L 210 955 L 220 965 Q 213 988 235 980 L 300 905 Q 308 879 275 890 Z M 415 890 L 400 905 L 420 910 L 410 935 L 415 960 L 460 895 L 415 890 Z M 475 890 L 400 995 L 410 1015 L 400 1070 L 485 1070 L 500 1055 L 490 970 L 470 965 L 500 960 L 500 910 L 480 910 L 475 890 Z M 500 890 L 500 910 L 585 910 L 595 900 L 635 910 L 700 895 L 500 890 Z M 800 890 Q 789 923 830 910 L 800 975 L 805 1050 L 810 1030 Q 837 1019 830 1045 Q 846 1075 900 1060 L 890 1005 L 900 965 L 900 910 L 845 910 Q 853 878 800 890 Z M 1010 890 L 1000 915 Q 991 969 1015 990 L 1040 915 L 1025 920 L 1040 895 L 1010 890 Z M 1060 890 L 1010 1035 Q 1000 1073 1030 1060 L 1040 1025 L 1075 1000 L 1100 965 L 1095 950 L 1065 970 L 1050 975 L 1080 905 Q 1087 879 1060 890 Z M 1095 890 L 1070 945 L 1065 960 L 1100 935 L 1095 890 Z M 295 920 L 240 1000 L 220 1005 L 270 1015 L 180 1055 L 185 1070 L 265 1070 L 300 1015 L 300 995 L 295 920 Z M 155 1020 L 115 1070 Q 160 1080 170 1055 Q 185 1011 155 1020 Z M 295 1040 L 280 1065 L 300 1070 L 295 1040 Z M 1080 1040 L 1080 1055 L 1100 1045 L 1080 1040 Z M 845 1070 L 845 1080 L 900 1075 L 845 1070 Z "
     id="path164" />
  <path
     fill="rgb(0,0,0)"
     stroke="rgb(0,0,0)"
     stroke-width="1"
     opacity="0"
     d="M 1895 30 L 1900 105 L 1890 105 L 1880 45 L 1895 30 Z "
     id="path166" />
  <path
     fill="rgb(0,0,0)"
     stroke="rgb(0,0,0)"
     stroke-width="1"
     opacity="0"
     d="M 635 450 L 605 490 L 505 490 L 500 470 L 595 470 L 605 480 L 635 450 Z "
     id="path168" />
  <rect
     style="opacity:1;fill:none;fill-opacity:1;stroke:none;stroke-opacity:1"
     id="rect4305"
     width="71.79361"
     height="152.20256"
     x="1302.3368"
     y="782.67206" />
  <g
     inkscape:groupmode="layer"
     id="layer1"
     inkscape:label="Layer 2"
     style="display:inline">
    <rect
       style="opacity:1;fill:none;fill-opacity:1;stroke:none;stroke-opacity:1"
       id="rect4308"
       width="76.101196"
       height="175.17647"
       x="1303.7727"
       y="774.05688" />
  </g>
  <rect
     style="opacity:0;fill:#000000;fill-opacity:0;stroke:none;stroke-opacity:1"
     id="rect4597"
     width="73.718216"
     height="138.63818"
     x="1300.4121"
     y="796.23645" />
  <rect
     style="opacity:0;fill:#000000;fill-opacity:0;stroke:none;stroke-opacity:1"
     id="rect4603"
     width="447.50525"
     height="392.89447"
     x="1106.1093"
     y="682.69568" />
     </a>
</svg>
